<?xml version="1.0" standalone="no"?>
<!DOCTYPE svg PUBLIC "-//W3C//DTD SVG 20010904//EN"
 "http://www.w3.org/TR/2001/REC-SVG-20010904/DTD/svg10.dtd">
<svg version="1.0" xmlns="http://www.w3.org/2000/svg"
 width="152.000000pt" height="48.000000pt" viewBox="0 0 152.000000 48.000000"
 preserveAspectRatio="xMidYMid meet">

<g transform="translate(0.000000,48.000000) scale(0.100000,-0.100000)"
fill="#000000" stroke="none">
<path d="M0 240 l0 -240 380 0 380 0 0 240 0 240 -380 0 -380 0 0 -240z m716
150 c-1 -41 -4 -50 -19 -50 -14 0 -17 5 -13 23 l6 22 -11 -22 c-7 -13 -16 -23
-21 -23 -5 0 -13 10 -19 23 l-10 22 5 -22 c3 -17 -1 -23 -12 -23 -13 0 -17 10
-17 45 0 36 3 45 17 45 10 0 23 -10 29 -22 l12 -23 10 22 c5 12 17 24 26 26 9
3 16 5 17 6 0 0 0 -21 0 -49z m-561 15 c0 -13 -8 -21 -22 -23 -26 -4 -29 -12
-11 -30 9 -9 7 -12 -12 -12 -23 0 -25 4 -25 45 l0 46 35 -3 c27 -2 35 -7 35
-23z m160 -7 c0 -14 3 -30 8 -34 4 -4 7 -11 7 -16 0 -14 -22 -9 -37 10 -14 16
-14 16 -9 0 4 -13 0 -18 -14 -18 -17 0 -20 7 -20 46 0 45 0 45 33 42 27 -3 32
-7 32 -30z m189 10 c13 -19 14 -25 2 -43 -26 -40 -86 -27 -86 19 0 47 57 63
84 24z m-381 -207 c9 -38 -1 -51 -43 -51 -23 0 -25 4 -25 45 0 45 1 46 29 43
25 -2 31 -9 39 -37z m181 17 c13 -19 14 -25 2 -43 -26 -40 -86 -27 -86 19 0
47 57 63 84 24z m171 -9 c0 -14 6 -33 14 -42 12 -15 11 -17 -7 -17 -12 0 -26
8 -32 18 -11 16 -11 16 -6 0 4 -14 0 -18 -17 -18 -20 0 -22 4 -19 46 4 44 5
45 36 42 26 -3 31 -7 31 -29z m171 -14 l21 -45 -24 0 c-12 0 -23 5 -23 10 0 6
-5 10 -11 10 -5 0 -7 -4 -4 -10 3 -5 -3 -10 -14 -10 -12 0 -21 1 -21 3 0 11
42 87 48 87 4 0 16 -20 28 -45z"/>
<path d="M110 405 c0 -8 5 -15 10 -15 6 0 10 7 10 15 0 8 -4 15 -10 15 -5 0
-10 -7 -10 -15z"/>
<path d="M280 404 c0 -8 5 -12 10 -9 6 4 8 11 5 16 -9 14 -15 11 -15 -7z"/>
<path d="M451 406 c-16 -19 -7 -46 14 -46 22 0 30 29 13 46 -13 13 -16 13 -27
0z"/>
<path d="M80 220 c0 -5 5 -10 11 -10 5 0 7 5 4 10 -3 6 -8 10 -11 10 -2 0 -4
-4 -4 -10z"/>
<path d="M80 180 c0 -5 7 -10 16 -10 8 0 12 5 9 10 -3 6 -10 10 -16 10 -5 0
-9 -4 -9 -10z"/>
<path d="M250 215 c-17 -20 -6 -45 20 -45 17 0 21 5 18 27 -4 31 -20 40 -38
18z"/>
<path d="M440 214 c0 -8 5 -12 10 -9 6 4 8 11 5 16 -9 14 -15 11 -15 -7z"/>
<path d="M815 420 c-26 -28 -15 -31 12 -3 12 13 19 23 14 23 -4 0 -16 -9 -26
-20z"/>
<path d="M865 385 c0 -13 3 -21 8 -18 4 2 7 10 7 18 0 8 -3 16 -7 18 -5 3 -8
-5 -8 -18z"/>
<path d="M800 373 c0 -6 8 -17 18 -24 16 -13 16 -13 2 6 -8 11 -16 22 -17 24
-2 2 -3 0 -3 -6z"/>
<path d="M848 333 c6 -2 18 -2 25 0 6 3 1 5 -13 5 -14 0 -19 -2 -12 -5z"/>
<path d="M862 200 c0 -19 2 -27 5 -17 2 9 2 25 0 35 -3 9 -5 1 -5 -18z"/>
<path d="M900 180 c0 -5 5 -10 11 -10 5 0 7 5 4 10 -3 6 -8 10 -11 10 -2 0 -4
-4 -4 -10z"/>
<path d="M883 143 c9 -2 23 -2 30 0 6 3 -1 5 -18 5 -16 0 -22 -2 -12 -5z"/>
</g>
</svg>
